<svg xmlns="http://www.w3.org/2000/svg" viewBox="0 0 900 1100" role="img" aria-label="YouSiki — PhD student by day, vibe coder by night · 3.8B tokens / $2.93K / rank #348" width="100%">
  <defs>
    <linearGradient id="pBg" x1="0" y1="0" x2="1" y2="1">
      <stop offset="0" stop-color="#FAF9F5"/>
      <stop offset="1" stop-color="#F0EEE6"/>
    </linearGradient>
    <radialGradient id="pGlowA" cx="0.9" cy="0.05" r="0.4">
      <stop offset="0" stop-color="#D97757" stop-opacity="0.28"/>
      <stop offset="1" stop-color="#D97757" stop-opacity="0"/>
    </radialGradient>
    <radialGradient id="pGlowB" cx="0.08" cy="0.45" r="0.32">
      <stop offset="0" stop-color="#D4A27F" stop-opacity="0.24"/>
      <stop offset="1" stop-color="#D4A27F" stop-opacity="0"/>
    </radialGradient>
    <radialGradient id="pGlowC" cx="0.92" cy="0.82" r="0.35">
      <stop offset="0" stop-color="#D97757" stop-opacity="0.22"/>
      <stop offset="1" stop-color="#D97757" stop-opacity="0"/>
    </radialGradient>
    <filter id="pSoft" x="-10%" y="-10%" width="120%" height="120%">
      <feGaussianBlur stdDeviation="28"/>
    </filter>
    <style>
      .serif { font-family: ui-serif, "Source Serif Pro", "Iowan Old Style", Georgia, "Times New Roman", serif; }
      .sans  { font-family: -apple-system, BlinkMacSystemFont, "SF Pro Text", "Segoe UI", Inter, system-ui, sans-serif; }
      .mono  { font-family: "SF Mono", ui-monospace, "JetBrains Mono", Menlo, Consolas, monospace; }
      .ink { fill: #141413; }
      .muted { fill: #5E5D59; }
      .coral { fill: #D97757; }
      .deep-coral { fill: #C6613F; }
      .tan { fill: #D4A27F; }
    </style>
  </defs>

  <rect width="900" height="1100" rx="22" fill="url(#pBg)"/>
  <g>
    <circle cx="800" cy="60" r="260" fill="url(#pGlowA)" filter="url(#pSoft)">
      <animate attributeName="r" values="240;280;240" dur="9s" repeatCount="indefinite"/>
    </circle>
    <circle cx="72" cy="500" r="240" fill="url(#pGlowB)" filter="url(#pSoft)">
      <animate attributeName="r" values="220;260;220" dur="11s" repeatCount="indefinite"/>
    </circle>
    <circle cx="820" cy="900" r="240" fill="url(#pGlowC)" filter="url(#pSoft)">
      <animate attributeName="r" values="220;260;220" dur="13s" repeatCount="indefinite"/>
    </circle>
  </g>

  <!-- window chrome -->
  <g transform="translate(28,24)">
    <circle cx="7"  cy="7" r="6" fill="#E8A598"/>
    <circle cx="28" cy="7" r="6" fill="#E8D598"/>
    <circle cx="49" cy="7" r="6" fill="#B8D5A3"/>
    <text x="84" y="11" class="mono muted" font-size="12">~ / yousiki / profile.md</text>
    <text x="840" y="11" class="mono muted" font-size="11" letter-spacing="1.5" text-anchor="end">updated 2026-04-21 00:51 JST</text>
  </g>

  <!-- ═════════ ABOUT ═════════ -->
  <line x1="40" y1="62" x2="860" y2="62" stroke="#D97757" stroke-opacity="0.22"/>
  
  <g transform="translate(48,86)">
    <path d="M0 -6 L1.6 -1.6 L6 0 L1.6 1.6 L0 6 L-1.6 1.6 L-6 0 L-1.6 -1.6 Z" class="coral">
      <animateTransform attributeName="transform" type="rotate" values="0;360" dur="18s" repeatCount="indefinite"/>
    </path>
  </g>
  <text x="64" y="90" class="mono muted" font-size="11" letter-spacing="2">ABOUT</text>

  <!-- left column: hero text -->
  <g transform="translate(40,140)">
    <text class="serif ink" font-size="46" font-weight="500" letter-spacing="-1.4">Hi — I'm <tspan class="coral" font-style="italic">YouSiki</tspan>.</text>
    <text y="36" class="serif ink" font-size="22" font-weight="400" letter-spacing="-0.3" fill-opacity="0.82">
      <tspan class="coral" font-style="italic">PhD student</tspan> by day. <tspan class="coral" font-style="italic">Vibe coder</tspan> by night.
    </text>
    <text y="68" class="sans muted" font-size="13" font-style="italic">
      Computer vision, <tspan class="ink" font-weight="500" font-style="normal">neuromorphic camera</tspan>, <tspan class="ink" font-weight="500" font-style="normal">world models</tspan> · Beijing &amp; Tokyo.
    </text>
  </g>

  <!-- right column: affiliation chips stacked -->
  <g transform="translate(560,130)" class="sans">
    <g>
      <rect width="300" height="34" rx="17" fill="#D97757" fill-opacity="0.14"/>
      <path d="M20 25 L22 19 L28 17 L22 15 L20 9 L18 15 L12 17 L18 19 Z" fill="#D97757"/>
      <text x="40" y="22" font-size="13" class="coral" font-weight="600">Peking University</text>
      <text x="280" y="22" font-size="11" class="muted" text-anchor="end">Beijing</text>
    </g>
    <g transform="translate(0,44)">
      <rect width="300" height="34" rx="17" fill="#D97757" fill-opacity="0.14"/>
      <path d="M20 25 L22 19 L28 17 L22 15 L20 9 L18 15 L12 17 L18 19 Z" fill="#D97757"/>
      <text x="40" y="22" font-size="13" class="coral" font-weight="600">Shanda AI Research</text>
      <text x="280" y="22" font-size="11" class="muted" text-anchor="end">Tokyo</text>
    </g>
  </g>

  <!-- ═════════ VIBE CODING DASHBOARD ═════════ -->
  <line x1="40" y1="250" x2="860" y2="250" stroke="#D97757" stroke-opacity="0.22"/>
  
  <g transform="translate(48,274)">
    <path d="M0 -6 L1.6 -1.6 L6 0 L1.6 1.6 L0 6 L-1.6 1.6 L-6 0 L-1.6 -1.6 Z" class="coral">
      <animateTransform attributeName="transform" type="rotate" values="0;360" dur="22s" repeatCount="indefinite"/>
    </path>
  </g>
  <text x="64" y="278" class="mono muted" font-size="11" letter-spacing="2">VIBE · CODING · DASHBOARD</text>
  <text x="844" y="278" class="mono muted" font-size="11" letter-spacing="1" text-anchor="end">
    <tspan class="coral" font-weight="600">●</tspan> live · tokscale.ai/u/yousiki
  </text>

  <g transform="translate(40,318)">
    <text y="0" class="mono muted" font-size="11" letter-spacing="1">tokens</text>
    <text y="52" class="serif coral" font-size="54" font-weight="500" letter-spacing="-1.8">3.8B</text>
    <text y="76" class="sans muted" font-size="12" font-style="italic">conjured with agents</text>
  </g>
  <line x1="296" y1="322" x2="296" y2="400" stroke="#D97757" stroke-opacity="0.16" stroke-dasharray="2 4"/>
  <g transform="translate(328,318)">
    <text y="0" class="mono muted" font-size="11" letter-spacing="1">spent</text>
    <text y="52" class="serif ink" font-size="54" font-weight="500" letter-spacing="-1.8">$2.93K</text>
    <text y="76" class="sans muted" font-size="12" font-style="italic">cost of thinking out loud</text>
  </g>
  <line x1="604" y1="322" x2="604" y2="400" stroke="#D97757" stroke-opacity="0.16" stroke-dasharray="2 4"/>
  <g transform="translate(636,318)">
    <text y="0" class="mono muted" font-size="11" letter-spacing="1">global rank</text>
    <text y="52" class="serif deep-coral" font-size="54" font-weight="500" letter-spacing="-1.8">#348</text>
    <text y="76" class="sans muted" font-size="12" font-style="italic">on the tokscale leaderboard</text>
  </g>

  <!-- animated sparkline -->
  <g transform="translate(40,416)">
    <path d="M0 8 Q40 0 80 6 T160 4 T240 10 T320 2 T400 8 T480 5 T560 9 T640 3 T720 7 T800 2 L820 6"
          fill="none" stroke="#D97757" stroke-width="1.6" stroke-linecap="round" stroke-opacity="0.55"
          stroke-dasharray="1400" stroke-dashoffset="1400">
      <animate attributeName="stroke-dashoffset" values="1400;0" dur="4.5s" begin="0.3s" fill="freeze"/>
      <animate attributeName="stroke-dashoffset" values="0;1400;0" dur="18s" begin="5s" repeatCount="indefinite"/>
    </path>
  </g>

  <!-- ═════════ VIBE CODING STACK ═════════ -->
  <line x1="40" y1="450" x2="860" y2="450" stroke="#D97757" stroke-opacity="0.22"/>
  
  <g transform="translate(48,474)">
    <path d="M0 -6 L1.6 -1.6 L6 0 L1.6 1.6 L0 6 L-1.6 1.6 L-6 0 L-1.6 -1.6 Z" class="coral">
      <animateTransform attributeName="transform" type="rotate" values="0;360" dur="26s" repeatCount="indefinite"/>
    </path>
  </g>
  <text x="64" y="478" class="mono muted" font-size="11" letter-spacing="2">VIBE · CODING · STACK</text>
  <text x="844" y="478" class="mono muted" font-size="11" letter-spacing="1" text-anchor="end">3 · companions</text>

  
  <g transform="translate(40,504)">
    <circle cx="10" cy="10" r="5" class="coral">
      <animate attributeName="r" values="4.6;5.6;4.6" dur="2.8s" begin="0s" repeatCount="indefinite"/>
      <animate attributeName="opacity" values="0.55;1;0.55" dur="2.8s" begin="0s" repeatCount="indefinite"/>
    </circle>
    <circle cx="10" cy="10" r="11" fill="none" stroke="#D97757" stroke-opacity="0.28"/>
    <text x="32" y="14" class="mono muted" font-size="10" letter-spacing="1">primary agent</text>
    <text y="46" class="serif ink" font-size="26" font-weight="500" letter-spacing="-0.4"><tspan class="coral" font-style="italic">claude</tspan> code</text>
    <line x1="0" y1="58" x2="40" y2="58" stroke="#141413" stroke-width="2"/>
    <text y="76" class="sans muted" font-size="12" font-style="italic">best model so far</text>
    <text y="92" class="mono ink" font-size="11" fill-opacity="0.72">opus · sonnet · haiku</text>
  </g>
  
  <g transform="translate(328,504)">
    <circle cx="10" cy="10" r="5" class="coral">
      <animate attributeName="r" values="4.6;5.6;4.6" dur="2.8s" begin="-0.93s" repeatCount="indefinite"/>
      <animate attributeName="opacity" values="0.55;1;0.55" dur="2.8s" begin="-0.93s" repeatCount="indefinite"/>
    </circle>
    <circle cx="10" cy="10" r="11" fill="none" stroke="#D97757" stroke-opacity="0.28"/>
    <text x="32" y="14" class="mono muted" font-size="10" letter-spacing="1">second brain</text>
    <text y="46" class="serif ink" font-size="26" font-weight="500" letter-spacing="-0.4"><tspan class="coral" font-style="italic">codex</tspan></text>
    <line x1="0" y1="58" x2="40" y2="58" stroke="#141413" stroke-width="2"/>
    <text y="76" class="sans muted" font-size="12" font-style="italic">best consultant &amp; reviewer</text>
    <text y="92" class="mono ink" font-size="11" fill-opacity="0.72">gpt-5.4 xhigh</text>
  </g>
  
  <g transform="translate(624,504)">
    <circle cx="10" cy="10" r="5" class="coral">
      <animate attributeName="r" values="4.6;5.6;4.6" dur="2.8s" begin="-1.87s" repeatCount="indefinite"/>
      <animate attributeName="opacity" values="0.55;1;0.55" dur="2.8s" begin="-1.87s" repeatCount="indefinite"/>
    </circle>
    <circle cx="10" cy="10" r="11" fill="none" stroke="#D97757" stroke-opacity="0.28"/>
    <text x="32" y="14" class="mono muted" font-size="10" letter-spacing="1">first love</text>
    <text y="46" class="serif ink" font-size="26" font-weight="500" letter-spacing="-0.4">oh-my-<tspan class="coral" font-style="italic">opencode</tspan></text>
    <line x1="0" y1="58" x2="40" y2="58" stroke="#141413" stroke-width="2"/>
    <text y="76" class="sans muted" font-size="12" font-style="italic">favorite philosophy, open society</text>
    <text y="92" class="mono ink" font-size="11" fill-opacity="0.72">glm · kimi · mimo</text>
  </g>
  <line x1="312" y1="512" x2="312" y2="600" stroke="#D97757" stroke-opacity="0.16" stroke-dasharray="2 4"/>
  <line x1="608" y1="512" x2="608" y2="600" stroke="#D97757" stroke-opacity="0.16" stroke-dasharray="2 4"/>

  <!-- ═════════ TECH STACK ═════════ -->
  <line x1="40" y1="632" x2="860" y2="632" stroke="#D97757" stroke-opacity="0.22"/>
  
  <g transform="translate(48,656)">
    <path d="M0 -6 L1.6 -1.6 L6 0 L1.6 1.6 L0 6 L-1.6 1.6 L-6 0 L-1.6 -1.6 Z" class="coral">
      <animateTransform attributeName="transform" type="rotate" values="0;360" dur="30s" repeatCount="indefinite"/>
    </path>
  </g>
  <text x="64" y="660" class="mono muted" font-size="11" letter-spacing="2">TECH · STACK</text>
  <text x="844" y="660" class="mono muted" font-size="11" letter-spacing="1" text-anchor="end">research · infra</text>

  
  <g transform="translate(0,684)" class="sans">
    
    <g transform="translate(40,0)">
      <rect width="152" height="60" rx="12" fill="#141413" fill-opacity="0.04" stroke="#D97757" stroke-opacity="0.22"/>
      <text x="76" y="28" class="serif ink" font-size="20" font-weight="500" letter-spacing="-0.3" text-anchor="middle">PyTorch</text>
      <text x="76" y="46" class="mono muted" font-size="10" letter-spacing="0.6" text-anchor="middle">most popular</text>
    </g>
    <g transform="translate(204,0)">
      <rect width="152" height="60" rx="12" fill="#141413" fill-opacity="0.04" stroke="#D97757" stroke-opacity="0.22"/>
      <text x="76" y="28" class="serif ink" font-size="20" font-weight="500" letter-spacing="-0.3" text-anchor="middle">JAX</text>
      <text x="76" y="46" class="mono muted" font-size="10" letter-spacing="0.6" text-anchor="middle">leading edge</text>
    </g>
    <g transform="translate(368,0)">
      <rect width="152" height="60" rx="12" fill="#141413" fill-opacity="0.04" stroke="#D97757" stroke-opacity="0.22"/>
      <text x="76" y="28" class="serif ink" font-size="20" font-weight="500" letter-spacing="-0.3" text-anchor="middle">TensorFlow</text>
      <text x="76" y="46" class="mono muted" font-size="10" letter-spacing="0.6" text-anchor="middle">legacy</text>
    </g>
    <g transform="translate(532,0)">
      <rect width="152" height="60" rx="12" fill="#141413" fill-opacity="0.04" stroke="#D97757" stroke-opacity="0.22"/>
      <text x="76" y="28" class="serif ink" font-size="20" font-weight="500" letter-spacing="-0.3" text-anchor="middle">Docker</text>
      <text x="76" y="46" class="mono muted" font-size="10" letter-spacing="0.6" text-anchor="middle">deploy everywhere</text>
    </g>
    <g transform="translate(696,0)">
      <rect width="152" height="60" rx="12" fill="#141413" fill-opacity="0.04" stroke="#D97757" stroke-opacity="0.22"/>
      <text x="76" y="28" class="serif ink" font-size="20" font-weight="500" letter-spacing="-0.3" text-anchor="middle">Nix</text>
      <text x="76" y="46" class="mono muted" font-size="10" letter-spacing="0.6" text-anchor="middle">reproducible</text>
    </g>
  </g>

  <!-- ═════════ CONTRIBUTION CANVAS ═════════ -->
  <line x1="40" y1="772" x2="860" y2="772" stroke="#D97757" stroke-opacity="0.22"/>
  
  <g transform="translate(48,796)">
    <path d="M0 -6 L1.6 -1.6 L6 0 L1.6 1.6 L0 6 L-1.6 1.6 L-6 0 L-1.6 -1.6 Z" class="coral">
      <animateTransform attributeName="transform" type="rotate" values="0;360" dur="34s" repeatCount="indefinite"/>
    </path>
  </g>
  <text x="64" y="800" class="mono muted" font-size="11" letter-spacing="2">CONTRIBUTION · CANVAS</text>
  <text x="844" y="800" class="mono muted" font-size="11" letter-spacing="1.5" text-anchor="end">past year</text>

  
  <g transform="translate(40,852)">
    <text class="mono muted" font-size="12" fill-opacity="0.7">snake generating — check back after the next workflow run</text>
  </g>

  <!-- ═════════ OUTBOUND LINKS ═════════ -->
  <line x1="40" y1="1024" x2="860" y2="1024" stroke="#D97757" stroke-opacity="0.22"/>
  <g transform="translate(450,1064)" text-anchor="middle">
    <text class="mono muted" font-size="11" letter-spacing="1.5">✳︎ find me elsewhere · links below ·</text>
  </g>
</svg>
